# xmcd
#
# Track frame offsets: 
#        150
#        14596
#        28599
#        40942
#        52235
#        70266
#        83211
#        95740
#        111947
#        132121
#        143724
#        157065
#        176013
#        188045
#        209461
#        222917
#        238697
#        251328
#        266355
#        281473
#
# Disc length: 3980 seconds
#
# Revision: 6
# Processed by: cddbd v1.5.2PL0 Copyright (c) Steve Scherf et al.
# Submitted via: ExactAudioCopyFreeDBPlugin 1.0
#
DISCID=2a0f8a14
DTITLE=Merle Haggard - Down Every Road - 1962-1994 - CD4
DYEAR=1996
DGENRE=Country
TTITLE0=If We're Not Back In Love By Monday
TTITLE1=Ramblin' Fever
TTITLE2=It's Been A Great Afternoon
TTITLE3=Red Bandana
TTITLE4=Footlights
TTITLE5=My Own Kind Of Hat
TTITLE6=Misery And Gin
TTITLE7=Leonard
TTITLE8=I Think I'll Just Stay Here And Drink
TTITLE9=Rainbow Stew
TTITLE10=Big City
TTITLE11=Are The Good Times Really Over (I Wish A Buck Was Still Silve
TTITLE11=r)
TTITLE12=You Take Me For Granted
TTITLE13=Pancho And Lefty
TTITLE14=That's The Way Love Goes
TTITLE15=Someday When Things Are Good
TTITLE16=Let's Chase Each Other Around The Room
TTITLE17=Kern River
TTITLE18=Twinkle, Twinkle Lucky Star
TTITLE19=In My Next Life
EXTD=YEAR: 1996
EXTT0=
EXTT1=
EXTT2=
EXTT3=
EXTT4=
EXTT5=
EXTT6=
EXTT7=
EXTT8=
EXTT9=
EXTT10=
EXTT11=
EXTT12=
EXTT13=
EXTT14=
EXTT15=
EXTT16=
EXTT17=
EXTT18=
EXTT19=
PLAYORDER=
